<?xml version="1.0" standalone="no"?><!-- Generator: Gravit.io --><svg xmlns="http://www.w3.org/2000/svg" xmlns:xlink="http://www.w3.org/1999/xlink" style="isolation:isolate" viewBox="0 0 257.7 257.7" width="257.7" height="257.7"><defs><clipPath id="_clipPath_Y6S9YXNWYks38hDGCA2XYUgSPyA5AO9M"><rect width="257.7" height="257.7"/></clipPath></defs><g clip-path="url(#_clipPath_Y6S9YXNWYks38hDGCA2XYUgSPyA5AO9M)"><path d=" M 205.272 25.128 C 183.885 9.338 157.449 0 128.85 0 C 57.736 0 0 57.736 0 128.85 L 0 128.85 C 0 199.965 57.736 257.7 128.85 257.7 C 157.042 257.7 183.131 248.627 204.355 233.243 L 179.908 208.797 C 165.164 218.238 147.642 223.714 128.85 223.714 C 76.494 223.714 33.987 181.207 33.987 128.85 L 33.987 128.85 C 33.987 76.494 76.494 33.987 128.85 33.987 C 147.946 33.987 165.732 39.641 180.622 49.366 L 205.272 25.128 Z  M 227.198 45.637 C 246.222 68.094 257.7 97.142 257.7 128.85 C 257.7 160.965 245.926 190.352 226.462 212.925 L 202.343 188.808 C 215.699 172.462 223.714 151.585 223.714 128.85 C 223.714 106.42 215.912 85.798 202.877 69.551 L 227.198 45.637 Z " fill-rule="evenodd" fill="rgb(0,0,0)"/><path d=" M 142.475 160.725 L 142.475 96.975 L 155.555 96.975 L 155.555 69.725 L 102.145 69.725 L 102.145 96.975 L 115.225 96.975 L 115.225 160.725 L 102.145 160.725 L 102.145 187.975 L 155.555 187.975 L 155.555 160.725 L 142.475 160.725 Z " fill="rgb(0,0,0)"/></g></svg>